<?xml version="1.0" encoding="utf-8"?>
<!-- Generator: Adobe Illustrator 16.0.0, SVG Export Plug-In . SVG Version: 6.00 Build 0)  -->
<!DOCTYPE svg PUBLIC "-//W3C//DTD SVG 1.1//EN" "http://www.w3.org/Graphics/SVG/1.1/DTD/svg11.dtd">
<svg version="1.1"
	 id="svg2" xmlns:dc="http://purl.org/dc/elements/1.1/" xmlns:sodipodi="http://sodipodi.sourceforge.net/DTD/sodipodi-0.dtd" xmlns:rdf="http://www.w3.org/1999/02/22-rdf-syntax-ns#" xmlns:cc="http://creativecommons.org/ns#" xmlns:inkscape="http://www.inkscape.org/namespaces/inkscape" xmlns:svg="http://www.w3.org/2000/svg" inkscape:version="0.48.4 r9939" sodipodi:docname="HBO 24-7.svg"
	 xmlns="http://www.w3.org/2000/svg" xmlns:xlink="http://www.w3.org/1999/xlink" x="0px" y="0px" width="800.289px"
	 height="614.367px" viewBox="139.5 107.092 800.289 614.367" enable-background="new 139.5 107.092 800.289 614.367"
	 xml:space="preserve">
<sodipodi:namedview  id="base" bordercolor="#666666" pagecolor="#ffffff" borderopacity="1.0" inkscape:zoom="0.5" inkscape:cx="217.99998" inkscape:cy="385.72596" showgrid="false" fit-margin-top="0" fit-margin-left="0" inkscape:window-y="-8" fit-margin-bottom="0" inkscape:window-maximized="1" inkscape:pageshadow="2" inkscape:pageopacity="0.0" inkscape:current-layer="layer1" inkscape:window-x="-8" inkscape:document-units="px" inkscape:window-width="1366" fit-margin-right="0" inkscape:window-height="706">
	</sodipodi:namedview>
<g>
	<path id="path3212" inkscape:connector-curvature="0" fill="#FFFFFF" d="M534.39,167.063
		c-12.312-30.598-42.306-63.648-98.489-59.108c-71.56,7.743-93.867,76.008-83.05,116.731c-28.503-19.209-76.967-27.658-119.273,8.41
		c-54.622,54.497-25.409,128.198,4.625,145.878c-33.092-3.052-85.396,19.206-96.967,77.424
		c-12.31,72.285,43.055,114.426,96.967,114.426h597.794c62.34,0,96.929-53.676,93.049-104.301
		c-6.121-66.068-66.862-91.419-99.99-85.986c27.684-15.373,64.653-87.582,8.432-144.354
		c-44.618-42.248-101.515-26.875-121.514-8.448c10.78-35.291-6.901-108.245-79.279-119.786c-4.999-0.555-9.814-0.857-14.406-0.857
		C567.032,107.094,542.189,147.297,534.39,167.063"/>
	<path id="path3214" inkscape:connector-curvature="0" fill="#F37124" d="M243.534,244.598
		c-31.559,28.438-43.053,92.872,13.845,130.539l226.98,154.993L374.302,279.178C351.242,219.958,288.155,207.042,243.534,244.598"/>
	<path id="path3216" inkscape:connector-curvature="0" fill="#CC1E4F" d="M438.917,122.583c-36.899,0.747-92.3,44.48-67.64,111.257
		l113.825,267.189l39.993-281.031C534.351,150.167,481.263,117.93,438.917,122.583"/>
	<path id="path3218" inkscape:connector-curvature="0" fill="#6461AB" d="M542.86,209.278h21.524c0,0,11.492,0,13.054,5.397
		c-8.468,6.885-31.521,7.746-28.464,44.519l36.187,241.796l113.046-267.891c23.127-59.814-25.413-109.769-68.465-111.295
		c-2.012-0.146-4.028-0.263-6.116-0.263C584.978,121.541,540.698,149.497,542.86,209.278"/>
	<path id="path3220" inkscape:connector-curvature="0" fill="#1989CA" d="M693.658,281.452L586.732,529.394l226.906-155.812
		c52.311-36.925,43.875-95.961,14.592-125.144c-12.276-13.735-34.811-24.344-58.683-24.344
		C741.339,224.093,711.157,238.98,693.658,281.452"/>
	<path id="path3222" inkscape:connector-curvature="0" fill="#12B24B" d="M788.234,408.864L575.137,557.013h262.385
		c53.833,0,88.422-55.244,73.05-105.94c-10.298-31.862-40.778-56.876-76.147-56.912C819.535,394.162,803.75,398.628,788.234,408.864
		"/>
	<path id="path3224" inkscape:connector-curvature="0" fill="#FBB715" d="M237.418,557.013h258.509L282.782,408.864
		c-49.246-31.492-104.611-13.065-124.604,39.191C141.235,507.877,183.544,557.013,237.418,557.013"/>
	<path id="path3124" inkscape:connector-curvature="0" sodipodi:nodetypes="ccccccccccccccc" d="M867.533,711.045v-30.429
		c0,0,15.677,12.905,32.626,12.905c8.854,0,13.537-4.688,13.537-12.303c0-11.701-11.632-15.41-23.087-21.199
		c-11.944-6.45-25.377-17.41-25.377-37.424c0-22.249,16.711-37.851,40.08-37.851c16.837,0,26.85,7.191,26.85,7.191v28.928
		c0,0-13.156-10.664-26.81-10.664c-8.837,0-14.19,4.356-14.19,11.663c0,9.989,10.189,14.304,21.137,19.623
		c17.544,8.561,27.49,18.323,27.49,38.313c0,21.929-15.155,40.927-40.652,40.927C881.252,720.727,867.533,711.045,867.533,711.045
		L867.533,711.045z"/>
	<path id="path3010" inkscape:connector-curvature="0" d="M283.544,661.49h22.706c5.22,0.329,14.473,4.89,14.473,15.69
		c0,11.298-9.601,15.855-14.805,16.366h-22.375L283.544,661.49 M283.2,611.199h18.69c6.387,0.348,13.941,5.07,13.941,13.841
		c0,8.605-5.71,14.336-13.102,15.361H283.2L283.2,611.199 M257.646,590.272v124.186h60.215c14.291,0,31.285-14.337,31.285-33.065
		c0-19.572-12.777-29.184-20.863-33.064c0,0,14.804-8.605,14.147-27.169c-0.675-24.974-23.729-30.887-31.634-30.887H257.646"/>
	<polygon id="polygon3012" points="166.542,642.928 244.59,719.179 244.59,590.272 218.363,590.272 218.363,659.969 
		140.295,585.222 140.295,714.457 166.542,714.457 	"/>
	<path id="path3014" inkscape:connector-curvature="0" d="M354.616,650.866c0.658,39.541,28.855,69.11,65.106,69.11
		c8.596,0,17.65-1.64,26.905-5.232v-25.479c-7.335,4.516-15.496,6.692-23.492,6.692c-21.938,0-42.636-16.354-41.78-46.104
		c1.479-24.132,21.084-40.795,42.218-40.795c7.738,0,15.697,2.246,23.052,7.151v-24.796c-8.577-3.503-17.101-5.068-25.314-5.068
		C385.152,586.344,355.309,617.078,354.616,650.866"/>
	<polygon id="polygon3229" points="577.162,590.294 577.162,660.32 499.095,585.222 499.095,715.062 525.342,715.062 
		525.342,643.199 603.391,719.806 603.391,590.294 	"/>
	<path id="path3231" inkscape:connector-curvature="0" sodipodi:nodetypes="ccccccccccccc" d="M614.146,589.385h68.304v21.613
		h-41.954v30.323h41.954v20.969h-42.188v31.816h41.97v21.412h-68.086V589.385z"/>
	<path id="path3233" inkscape:connector-curvature="0" d="M689.99,589.707l59.976,131.752l25.643-57.34l26.114,57.34l58.717-131.313
		h-28.71L799.56,664l-11.327-28.07l20.451-45.783h-25.643l-6.922,15.874l-6.567-16.313h-27.845l21.237,46.583L750.87,664
		l-33.075-74.293H689.99L689.99,589.707z"/>
</g>
</svg>
